%TF.GenerationSoftware,KiCad,Pcbnew,8.0.9-8.0.9-0~ubuntu20.04.1*%
%TF.CreationDate,2026-03-28T13:37:35+11:00*%
%TF.ProjectId,bionx,62696f6e-782e-46b6-9963-61645f706362,rev?*%
%TF.SameCoordinates,Original*%
%TF.FileFunction,Legend,Top*%
%TF.FilePolarity,Positive*%
%FSLAX46Y46*%
G04 Gerber Fmt 4.6, Leading zero omitted, Abs format (unit mm)*
G04 Created by KiCad (PCBNEW 8.0.9-8.0.9-0~ubuntu20.04.1) date 2026-03-28 13:37:35*
%MOMM*%
%LPD*%
G01*
G04 APERTURE LIST*
%ADD10C,0.100000*%
%ADD11C,0.150000*%
%ADD12C,0.120000*%
G04 APERTURE END LIST*
D10*
G36*
X133568988Y-76942762D02*
G01*
X133725878Y-76950516D01*
X133880966Y-76970883D01*
X134031381Y-77011401D01*
X134164898Y-77073007D01*
X134241178Y-77122074D01*
X134353350Y-77226981D01*
X134436378Y-77352886D01*
X134487916Y-77496015D01*
X134505617Y-77652595D01*
X134499767Y-77746999D01*
X134462131Y-77903449D01*
X134391204Y-78045482D01*
X134288826Y-78169278D01*
X134156838Y-78271018D01*
X134130996Y-78286458D01*
X133988036Y-78355856D01*
X133843253Y-78401984D01*
X133686427Y-78435882D01*
X133727514Y-78448724D01*
X133878363Y-78505543D01*
X134036784Y-78588997D01*
X134162093Y-78686511D01*
X134269322Y-78822466D01*
X134330145Y-78979518D01*
X134345882Y-79126845D01*
X134343590Y-79187605D01*
X134318323Y-79334213D01*
X134266438Y-79471346D01*
X134189545Y-79596606D01*
X134089253Y-79707593D01*
X133967172Y-79801911D01*
X133824912Y-79877159D01*
X133739913Y-79909748D01*
X133579119Y-79950324D01*
X133415879Y-79974196D01*
X133261154Y-79986053D01*
X133094382Y-79990000D01*
X131569574Y-79990000D01*
X131590090Y-79792896D01*
X131653105Y-79792896D01*
X131667921Y-79792836D01*
X131820297Y-79782934D01*
X131960118Y-79734277D01*
X131987180Y-79680055D01*
X132484752Y-79680055D01*
X132490041Y-79716801D01*
X132623506Y-79786136D01*
X132779309Y-79792896D01*
X132988869Y-79792896D01*
X133147303Y-79784565D01*
X133309426Y-79755086D01*
X133448313Y-79705041D01*
X133572854Y-79625101D01*
X133681000Y-79507372D01*
X133763180Y-79366356D01*
X133815410Y-79210365D01*
X133833705Y-79047711D01*
X133822355Y-78936986D01*
X133764304Y-78791031D01*
X133659980Y-78674191D01*
X133531088Y-78599281D01*
X133491909Y-78585844D01*
X133344188Y-78555892D01*
X133191984Y-78540857D01*
X133043824Y-78536266D01*
X132779309Y-78536266D01*
X132510397Y-79533510D01*
X132484752Y-79680055D01*
X131987180Y-79680055D01*
X132018388Y-79617525D01*
X132056838Y-79474891D01*
X132360748Y-78339162D01*
X132829867Y-78339162D01*
X133177913Y-78339162D01*
X133289441Y-78335680D01*
X133448379Y-78315109D01*
X133600745Y-78268619D01*
X133740648Y-78186022D01*
X133785117Y-78147349D01*
X133886023Y-78021462D01*
X133951024Y-77889523D01*
X133991779Y-77743370D01*
X134005896Y-77588848D01*
X133994631Y-77455553D01*
X133939745Y-77310344D01*
X133818135Y-77200695D01*
X133657310Y-77151281D01*
X133509839Y-77141151D01*
X133388206Y-77141151D01*
X133368669Y-77141245D01*
X133222770Y-77159926D01*
X133120714Y-77276236D01*
X133073133Y-77431311D01*
X132829867Y-78339162D01*
X132360748Y-78339162D01*
X132594661Y-77465017D01*
X132609155Y-77401373D01*
X132632030Y-77256189D01*
X132599070Y-77178574D01*
X132450276Y-77144738D01*
X132300104Y-77141151D01*
X132190928Y-77141151D01*
X132216573Y-76941849D01*
X133480530Y-76941849D01*
X133568988Y-76942762D01*
G37*
G36*
X135700697Y-78011632D02*
G01*
X134893963Y-78074647D01*
X134877110Y-78224856D01*
X134978227Y-78224856D01*
X135129477Y-78241742D01*
X135217096Y-78354549D01*
X135188486Y-78506319D01*
X135179727Y-78539197D01*
X134935729Y-79354724D01*
X134894179Y-79501566D01*
X134856580Y-79652039D01*
X134843405Y-79776775D01*
X134891937Y-79923801D01*
X135018985Y-80016962D01*
X135133565Y-80036894D01*
X135283838Y-80014083D01*
X135430871Y-79945520D01*
X135559323Y-79846008D01*
X135654535Y-79747466D01*
X135753810Y-79626454D01*
X135844264Y-79498499D01*
X135914654Y-79392093D01*
X135784228Y-79321018D01*
X135687952Y-79461827D01*
X135596325Y-79581310D01*
X135494068Y-79695076D01*
X135373923Y-79793560D01*
X135276448Y-79827334D01*
X135204640Y-79739406D01*
X135230759Y-79594120D01*
X135255198Y-79504933D01*
X135700697Y-78011632D01*
G37*
G36*
X135625226Y-76988743D02*
G01*
X135480500Y-77040425D01*
X135402671Y-77169945D01*
X135398080Y-77215889D01*
X135449394Y-77358790D01*
X135576337Y-77438264D01*
X135620830Y-77443035D01*
X135768568Y-77391353D01*
X135847041Y-77261834D01*
X135851639Y-77215889D01*
X135800019Y-77071162D01*
X135670929Y-76993334D01*
X135625226Y-76988743D01*
G37*
G36*
X137350088Y-78024522D02*
G01*
X137494514Y-78056066D01*
X137658757Y-78135063D01*
X137799232Y-78252059D01*
X137890419Y-78368722D01*
X137959402Y-78502343D01*
X138003071Y-78649652D01*
X138018318Y-78807376D01*
X138016757Y-78865206D01*
X137999544Y-79011294D01*
X137964144Y-79157557D01*
X137911598Y-79301512D01*
X137842946Y-79440677D01*
X137759226Y-79572570D01*
X137661479Y-79694710D01*
X137623007Y-79735623D01*
X137499512Y-79843076D01*
X137364463Y-79927306D01*
X137218586Y-79987937D01*
X137062604Y-80024592D01*
X136897243Y-80036894D01*
X136813373Y-80033356D01*
X136658147Y-80005649D01*
X136520803Y-79951774D01*
X136376454Y-79850079D01*
X136265086Y-79713141D01*
X136201620Y-79580324D01*
X136165932Y-79441919D01*
X136527215Y-79441919D01*
X136545754Y-79608371D01*
X136611378Y-79751456D01*
X136739890Y-79849442D01*
X136900907Y-79877892D01*
X136961823Y-79874577D01*
X137108953Y-79832217D01*
X137237887Y-79738329D01*
X137339830Y-79611153D01*
X137421877Y-79466831D01*
X137432437Y-79445170D01*
X137491626Y-79304650D01*
X137542098Y-79152327D01*
X137581677Y-78996893D01*
X137608192Y-78847042D01*
X137619713Y-78690872D01*
X137616191Y-78604454D01*
X137588583Y-78453150D01*
X137523451Y-78315715D01*
X137408585Y-78215033D01*
X137254082Y-78180160D01*
X137224430Y-78181036D01*
X137071464Y-78217164D01*
X136945862Y-78295990D01*
X136842288Y-78404375D01*
X136779312Y-78500468D01*
X136706484Y-78645333D01*
X136642628Y-78810087D01*
X136599750Y-78950735D01*
X136565609Y-79094722D01*
X136537247Y-79273046D01*
X136527215Y-79441919D01*
X136165932Y-79441919D01*
X136162489Y-79428565D01*
X136149127Y-79259469D01*
X136150550Y-79195434D01*
X136166465Y-79040166D01*
X136199823Y-78892093D01*
X136250354Y-78751600D01*
X136317789Y-78619074D01*
X136401862Y-78494899D01*
X136502302Y-78379462D01*
X136545293Y-78337032D01*
X136680161Y-78225063D01*
X136822409Y-78136664D01*
X136970154Y-78072589D01*
X137121511Y-78033592D01*
X137274598Y-78020425D01*
X137350088Y-78024522D01*
G37*
G36*
X139188485Y-78020425D02*
G01*
X138428646Y-78083440D01*
X138411793Y-78235115D01*
X138512177Y-78235115D01*
X138663658Y-78251768D01*
X138751779Y-78364075D01*
X138722677Y-78513921D01*
X138713677Y-78546524D01*
X138285764Y-79974612D01*
X138650662Y-79974612D01*
X138823586Y-79395757D01*
X138871031Y-79243365D01*
X138921683Y-79096577D01*
X138980175Y-78957637D01*
X139058626Y-78814638D01*
X139134263Y-78699665D01*
X139239581Y-78561746D01*
X139350531Y-78447938D01*
X139482645Y-78348729D01*
X139630674Y-78284121D01*
X139718248Y-78272484D01*
X139853683Y-78340179D01*
X139886043Y-78442477D01*
X139863723Y-78593468D01*
X139823028Y-78732637D01*
X139600279Y-79379637D01*
X139555249Y-79525198D01*
X139527063Y-79675638D01*
X139524808Y-79727683D01*
X139559159Y-79876998D01*
X139663822Y-79993140D01*
X139818632Y-80036894D01*
X139967634Y-80013754D01*
X140116057Y-79945433D01*
X140238212Y-79855179D01*
X140358047Y-79735653D01*
X140451657Y-79619599D01*
X140542777Y-79485912D01*
X140587264Y-79412609D01*
X140465631Y-79325415D01*
X140369332Y-79467358D01*
X140277886Y-79585940D01*
X140175196Y-79697000D01*
X140051513Y-79791258D01*
X139944661Y-79822937D01*
X139869190Y-79744535D01*
X139904275Y-79592028D01*
X139949057Y-79466831D01*
X140146161Y-78894570D01*
X140195041Y-78743347D01*
X140230590Y-78592095D01*
X140247179Y-78437742D01*
X140247278Y-78426357D01*
X140215519Y-78269885D01*
X140128942Y-78140684D01*
X140000600Y-78052837D01*
X139843545Y-78020425D01*
X139680663Y-78046621D01*
X139539446Y-78111409D01*
X139419616Y-78195870D01*
X139297008Y-78308533D01*
X139196403Y-78419284D01*
X139093133Y-78548625D01*
X139066852Y-78583893D01*
X139188485Y-78020425D01*
G37*
G36*
X142496755Y-78335498D02*
G01*
X143260990Y-77550013D01*
X143373881Y-77438076D01*
X143495439Y-77328691D01*
X143623676Y-77236350D01*
X143767250Y-77172576D01*
X143926195Y-77144526D01*
X144004710Y-77140418D01*
X144025226Y-76941849D01*
X142836741Y-76941849D01*
X142816224Y-77140418D01*
X142899755Y-77140418D01*
X143049730Y-77162972D01*
X143118108Y-77262784D01*
X143066377Y-77410359D01*
X142967551Y-77536780D01*
X142916608Y-77592512D01*
X142404431Y-78120076D01*
X142101814Y-77393942D01*
X142060048Y-77258387D01*
X142167382Y-77156686D01*
X142323590Y-77140530D01*
X142341416Y-77140418D01*
X142416887Y-77140418D01*
X142438136Y-76941849D01*
X141114829Y-76941849D01*
X141093579Y-77140418D01*
X141194696Y-77140418D01*
X141344146Y-77146796D01*
X141492045Y-77205145D01*
X141577585Y-77327573D01*
X141627006Y-77435708D01*
X142063712Y-78471053D01*
X141236461Y-79345198D01*
X141126482Y-79458592D01*
X141007639Y-79570340D01*
X140881703Y-79667062D01*
X140740155Y-79739326D01*
X140583315Y-79780994D01*
X140505931Y-79792896D01*
X140484682Y-79990000D01*
X141686357Y-79990000D01*
X141711270Y-79792896D01*
X141648255Y-79792896D01*
X141500156Y-79778195D01*
X141373039Y-79694732D01*
X141362491Y-79644884D01*
X141410364Y-79505015D01*
X141507391Y-79378164D01*
X141526622Y-79357655D01*
X142160432Y-78686475D01*
X142538520Y-79589930D01*
X142564166Y-79695443D01*
X142444988Y-79787103D01*
X142307711Y-79792896D01*
X142177285Y-79792896D01*
X142152372Y-79990000D01*
X143500593Y-79990000D01*
X143521842Y-79792896D01*
X143412665Y-79792896D01*
X143263007Y-79787776D01*
X143121006Y-79730994D01*
X143037039Y-79601975D01*
X142984019Y-79484417D01*
X142496755Y-78335498D01*
G37*
G36*
X147503489Y-77230544D02*
G01*
X147388218Y-77110873D01*
X147266638Y-77019389D01*
X147135071Y-76954297D01*
X146989835Y-76913799D01*
X146827249Y-76896099D01*
X146768562Y-76894954D01*
X146597464Y-76905152D01*
X146430728Y-76935598D01*
X146268870Y-76986067D01*
X146112404Y-77056338D01*
X145961845Y-77146186D01*
X145817709Y-77255388D01*
X145680512Y-77383721D01*
X145550767Y-77530963D01*
X145441356Y-77674580D01*
X145346198Y-77823298D01*
X145265398Y-77976791D01*
X145199057Y-78134731D01*
X145147280Y-78296793D01*
X145110168Y-78462650D01*
X145087826Y-78631976D01*
X145080355Y-78804445D01*
X145093016Y-79006531D01*
X145130249Y-79194081D01*
X145190932Y-79365928D01*
X145273942Y-79520907D01*
X145378155Y-79657851D01*
X145502449Y-79775593D01*
X145645701Y-79872967D01*
X145806787Y-79948806D01*
X145984585Y-80001945D01*
X146177972Y-80031216D01*
X146315003Y-80036894D01*
X146484348Y-80027443D01*
X146645156Y-79999278D01*
X146796941Y-79952686D01*
X146939218Y-79887951D01*
X147071499Y-79805359D01*
X147193298Y-79705194D01*
X147238974Y-79660272D01*
X147342049Y-79540949D01*
X147425223Y-79417878D01*
X147504954Y-79271074D01*
X147575296Y-79117320D01*
X147403105Y-79042581D01*
X147332076Y-79187456D01*
X147258456Y-79320104D01*
X147170533Y-79443163D01*
X147163503Y-79451444D01*
X147061836Y-79562711D01*
X146931169Y-79670233D01*
X146790201Y-79749967D01*
X146638031Y-79802524D01*
X146473763Y-79828510D01*
X146386810Y-79831730D01*
X146224316Y-79819777D01*
X146079873Y-79784072D01*
X145938201Y-79714476D01*
X145822940Y-79614501D01*
X145798429Y-79584801D01*
X145715036Y-79457546D01*
X145654448Y-79309753D01*
X145617491Y-79146160D01*
X145605186Y-78993781D01*
X145604989Y-78971507D01*
X145612747Y-78789832D01*
X145635455Y-78603734D01*
X145672261Y-78415799D01*
X145722317Y-78228612D01*
X145784772Y-78044755D01*
X145858776Y-77866816D01*
X145943480Y-77697376D01*
X146038032Y-77539023D01*
X146134598Y-77409853D01*
X146242380Y-77300446D01*
X146359500Y-77211673D01*
X146509726Y-77133613D01*
X146667448Y-77088029D01*
X146802267Y-77075938D01*
X146949684Y-77090897D01*
X147100302Y-77145975D01*
X147227601Y-77241267D01*
X147331259Y-77376451D01*
X147390648Y-77497257D01*
X147438513Y-77637073D01*
X147468463Y-77784735D01*
X147486579Y-77940329D01*
X147497158Y-78098721D01*
X147499825Y-78157445D01*
X147672016Y-78157445D01*
X147907222Y-76988011D01*
X147755547Y-76988011D01*
X147503489Y-77230544D01*
G37*
G36*
X149164603Y-78024522D02*
G01*
X149309029Y-78056066D01*
X149473272Y-78135063D01*
X149613747Y-78252059D01*
X149704934Y-78368722D01*
X149773917Y-78502343D01*
X149817586Y-78649652D01*
X149832833Y-78807376D01*
X149831272Y-78865206D01*
X149814059Y-79011294D01*
X149778659Y-79157557D01*
X149726113Y-79301512D01*
X149657461Y-79440677D01*
X149573741Y-79572570D01*
X149475994Y-79694710D01*
X149437522Y-79735623D01*
X149314027Y-79843076D01*
X149178978Y-79927306D01*
X149033101Y-79987937D01*
X148877119Y-80024592D01*
X148711758Y-80036894D01*
X148627888Y-80033356D01*
X148472662Y-80005649D01*
X148335318Y-79951774D01*
X148190969Y-79850079D01*
X148079601Y-79713141D01*
X148016135Y-79580324D01*
X147980447Y-79441919D01*
X148341730Y-79441919D01*
X148360269Y-79608371D01*
X148425893Y-79751456D01*
X148554405Y-79849442D01*
X148715422Y-79877892D01*
X148776338Y-79874577D01*
X148923468Y-79832217D01*
X149052402Y-79738329D01*
X149154345Y-79611153D01*
X149236392Y-79466831D01*
X149246952Y-79445170D01*
X149306141Y-79304650D01*
X149356613Y-79152327D01*
X149396192Y-78996893D01*
X149422707Y-78847042D01*
X149434228Y-78690872D01*
X149430706Y-78604454D01*
X149403098Y-78453150D01*
X149337966Y-78315715D01*
X149223100Y-78215033D01*
X149068597Y-78180160D01*
X149038945Y-78181036D01*
X148885979Y-78217164D01*
X148760377Y-78295990D01*
X148656803Y-78404375D01*
X148593827Y-78500468D01*
X148520999Y-78645333D01*
X148457143Y-78810087D01*
X148414265Y-78950735D01*
X148380124Y-79094722D01*
X148351762Y-79273046D01*
X148341730Y-79441919D01*
X147980447Y-79441919D01*
X147977004Y-79428565D01*
X147963642Y-79259469D01*
X147965065Y-79195434D01*
X147980980Y-79040166D01*
X148014338Y-78892093D01*
X148064869Y-78751600D01*
X148132304Y-78619074D01*
X148216377Y-78494899D01*
X148316817Y-78379462D01*
X148359808Y-78337032D01*
X148494676Y-78225063D01*
X148636924Y-78136664D01*
X148784669Y-78072589D01*
X148936026Y-78033592D01*
X149089113Y-78020425D01*
X149164603Y-78024522D01*
G37*
G36*
X151003000Y-78020425D02*
G01*
X150243161Y-78083440D01*
X150226308Y-78235115D01*
X150326692Y-78235115D01*
X150478173Y-78251768D01*
X150566294Y-78364075D01*
X150537192Y-78513921D01*
X150528192Y-78546524D01*
X150100279Y-79974612D01*
X150465177Y-79974612D01*
X150638101Y-79395757D01*
X150685546Y-79243365D01*
X150736198Y-79096577D01*
X150794690Y-78957637D01*
X150873141Y-78814638D01*
X150948778Y-78699665D01*
X151054096Y-78561746D01*
X151165046Y-78447938D01*
X151297160Y-78348729D01*
X151445189Y-78284121D01*
X151532763Y-78272484D01*
X151668198Y-78340179D01*
X151700558Y-78442477D01*
X151678238Y-78593468D01*
X151637543Y-78732637D01*
X151414794Y-79379637D01*
X151369764Y-79525198D01*
X151341578Y-79675638D01*
X151339323Y-79727683D01*
X151373674Y-79876998D01*
X151478337Y-79993140D01*
X151633147Y-80036894D01*
X151782149Y-80013754D01*
X151930572Y-79945433D01*
X152052727Y-79855179D01*
X152172562Y-79735653D01*
X152266172Y-79619599D01*
X152357292Y-79485912D01*
X152401779Y-79412609D01*
X152280146Y-79325415D01*
X152183847Y-79467358D01*
X152092401Y-79585940D01*
X151989711Y-79697000D01*
X151866028Y-79791258D01*
X151759176Y-79822937D01*
X151683705Y-79744535D01*
X151718790Y-79592028D01*
X151763572Y-79466831D01*
X151960676Y-78894570D01*
X152009556Y-78743347D01*
X152045105Y-78592095D01*
X152061694Y-78437742D01*
X152061793Y-78426357D01*
X152030034Y-78269885D01*
X151943457Y-78140684D01*
X151815115Y-78052837D01*
X151658060Y-78020425D01*
X151495178Y-78046621D01*
X151353961Y-78111409D01*
X151234131Y-78195870D01*
X151111523Y-78308533D01*
X151010918Y-78419284D01*
X150907648Y-78548625D01*
X150881367Y-78583893D01*
X151003000Y-78020425D01*
G37*
G36*
X153630565Y-78020425D02*
G01*
X153471271Y-78032653D01*
X153325750Y-78067961D01*
X153166722Y-78141414D01*
X153037306Y-78243687D01*
X152941994Y-78370754D01*
X152885283Y-78518589D01*
X152870725Y-78649106D01*
X152900662Y-78805423D01*
X152987432Y-78942742D01*
X153110347Y-79044319D01*
X153160153Y-79072623D01*
X153294518Y-79135035D01*
X153441423Y-79195930D01*
X153487683Y-79214040D01*
X153635362Y-79281039D01*
X153754721Y-79381194D01*
X153785903Y-79512260D01*
X153751843Y-79662126D01*
X153655203Y-79777508D01*
X153504295Y-79851674D01*
X153334269Y-79877467D01*
X153307431Y-79877892D01*
X153159729Y-79867439D01*
X153010688Y-79823105D01*
X152941800Y-79736475D01*
X152971109Y-79674193D01*
X153055547Y-79548926D01*
X153059769Y-79496140D01*
X153005069Y-79355929D01*
X152867535Y-79289827D01*
X152845080Y-79288778D01*
X152697754Y-79341431D01*
X152616112Y-79467569D01*
X152601814Y-79566482D01*
X152628992Y-79717642D01*
X152707649Y-79842836D01*
X152833465Y-79939281D01*
X152971222Y-79995685D01*
X153136232Y-80028582D01*
X153286182Y-80036894D01*
X153459829Y-80024854D01*
X153617204Y-79989896D01*
X153756186Y-79933764D01*
X153900818Y-79836477D01*
X154009256Y-79712233D01*
X154077356Y-79564435D01*
X154100976Y-79396489D01*
X154079380Y-79250733D01*
X154008231Y-79109812D01*
X153903815Y-79006627D01*
X153891416Y-78997885D01*
X153760532Y-78926261D01*
X153621093Y-78870630D01*
X153525785Y-78835952D01*
X153374085Y-78776255D01*
X153241762Y-78689878D01*
X153182267Y-78541966D01*
X153181402Y-78512819D01*
X153222432Y-78365320D01*
X153334373Y-78253694D01*
X153479885Y-78194471D01*
X153610048Y-78180160D01*
X153766167Y-78198244D01*
X153882623Y-78292267D01*
X153861374Y-78350886D01*
X153795826Y-78485168D01*
X153794696Y-78516482D01*
X153856612Y-78654144D01*
X154001334Y-78707494D01*
X154013049Y-78707725D01*
X154160941Y-78660139D01*
X154242784Y-78533103D01*
X154252651Y-78454200D01*
X154216885Y-78299757D01*
X154116303Y-78172787D01*
X153986143Y-78091020D01*
X153822114Y-78038794D01*
X153664132Y-78020952D01*
X153630565Y-78020425D01*
G37*
G36*
X155691748Y-78024522D02*
G01*
X155836175Y-78056066D01*
X156000418Y-78135063D01*
X156140893Y-78252059D01*
X156232080Y-78368722D01*
X156301063Y-78502343D01*
X156344732Y-78649652D01*
X156359979Y-78807376D01*
X156358418Y-78865206D01*
X156341205Y-79011294D01*
X156305805Y-79157557D01*
X156253259Y-79301512D01*
X156184606Y-79440677D01*
X156100887Y-79572570D01*
X156003140Y-79694710D01*
X155964667Y-79735623D01*
X155841172Y-79843076D01*
X155706124Y-79927306D01*
X155560247Y-79987937D01*
X155404265Y-80024592D01*
X155238904Y-80036894D01*
X155155033Y-80033356D01*
X154999808Y-80005649D01*
X154862464Y-79951774D01*
X154718114Y-79850079D01*
X154606747Y-79713141D01*
X154543281Y-79580324D01*
X154507593Y-79441919D01*
X154868876Y-79441919D01*
X154887415Y-79608371D01*
X154953039Y-79751456D01*
X155081550Y-79849442D01*
X155242568Y-79877892D01*
X155303484Y-79874577D01*
X155450613Y-79832217D01*
X155579548Y-79738329D01*
X155681490Y-79611153D01*
X155763538Y-79466831D01*
X155774097Y-79445170D01*
X155833287Y-79304650D01*
X155883759Y-79152327D01*
X155923338Y-78996893D01*
X155949853Y-78847042D01*
X155961374Y-78690872D01*
X155957851Y-78604454D01*
X155930244Y-78453150D01*
X155865112Y-78315715D01*
X155750245Y-78215033D01*
X155595743Y-78180160D01*
X155566091Y-78181036D01*
X155413125Y-78217164D01*
X155287523Y-78295990D01*
X155183949Y-78404375D01*
X155120973Y-78500468D01*
X155048145Y-78645333D01*
X154984289Y-78810087D01*
X154941411Y-78950735D01*
X154907270Y-79094722D01*
X154878908Y-79273046D01*
X154868876Y-79441919D01*
X154507593Y-79441919D01*
X154504150Y-79428565D01*
X154490788Y-79259469D01*
X154492211Y-79195434D01*
X154508126Y-79040166D01*
X154541484Y-78892093D01*
X154592014Y-78751600D01*
X154659450Y-78619074D01*
X154743523Y-78494899D01*
X154843963Y-78379462D01*
X154886954Y-78337032D01*
X155021822Y-78225063D01*
X155164070Y-78136664D01*
X155311815Y-78072589D01*
X155463172Y-78033592D01*
X155616259Y-78020425D01*
X155691748Y-78024522D01*
G37*
G36*
X157803454Y-76894954D02*
G01*
X156967411Y-76957969D01*
X156950558Y-77108911D01*
X157080983Y-77108911D01*
X157232465Y-77125565D01*
X157320586Y-77237871D01*
X157293297Y-77384425D01*
X157282484Y-77421786D01*
X156749057Y-79213307D01*
X156701028Y-79375223D01*
X156660871Y-79525946D01*
X156637301Y-79675318D01*
X156635484Y-79743803D01*
X156665077Y-79891653D01*
X156771051Y-80005222D01*
X156908792Y-80036894D01*
X157057906Y-80013594D01*
X157207106Y-79944158D01*
X157330899Y-79851554D01*
X157453683Y-79727796D01*
X157550857Y-79606629D01*
X157646824Y-79465988D01*
X157694277Y-79388429D01*
X157563852Y-79318087D01*
X157467071Y-79458311D01*
X157374618Y-79577390D01*
X157270943Y-79690863D01*
X157148188Y-79789186D01*
X157047278Y-79822937D01*
X156971807Y-79735010D01*
X157000890Y-79589600D01*
X157026029Y-79505666D01*
X157803454Y-76894954D01*
G37*
G36*
X159215008Y-78028508D02*
G01*
X159376221Y-78078976D01*
X159500546Y-78170310D01*
X159580574Y-78296249D01*
X159608897Y-78450537D01*
X159608368Y-78472983D01*
X159575569Y-78624766D01*
X159493596Y-78765294D01*
X159386043Y-78874765D01*
X159245689Y-78972325D01*
X159104780Y-79043314D01*
X158958760Y-79102764D01*
X158815524Y-79148675D01*
X158669639Y-79187639D01*
X158506578Y-79227842D01*
X158340544Y-79267529D01*
X158331751Y-79408213D01*
X158333557Y-79456892D01*
X158367310Y-79607362D01*
X158454484Y-79737349D01*
X158588233Y-79816701D01*
X158739148Y-79839790D01*
X158859122Y-79829333D01*
X159014780Y-79779878D01*
X159153351Y-79699119D01*
X159278650Y-79598939D01*
X159390544Y-79491744D01*
X159490928Y-79603119D01*
X159381351Y-79728898D01*
X159264837Y-79832950D01*
X159141320Y-79915441D01*
X158983761Y-79986206D01*
X158815904Y-80026455D01*
X158668073Y-80036894D01*
X158506620Y-80024339D01*
X158330228Y-79974520D01*
X158184074Y-79888835D01*
X158070287Y-79769481D01*
X157990998Y-79618655D01*
X157953836Y-79476810D01*
X157941207Y-79317355D01*
X157947586Y-79191337D01*
X157962600Y-79105596D01*
X158361060Y-79105596D01*
X158510159Y-79072738D01*
X158651840Y-79034652D01*
X158789706Y-78981032D01*
X158896615Y-78928436D01*
X159031885Y-78839345D01*
X159150503Y-78721325D01*
X159225462Y-78589893D01*
X159255722Y-78425624D01*
X159249136Y-78362903D01*
X159167741Y-78232823D01*
X159024912Y-78188953D01*
X158995948Y-78189993D01*
X158829919Y-78238568D01*
X158703840Y-78331380D01*
X158591499Y-78468010D01*
X158513142Y-78606498D01*
X158446359Y-78768972D01*
X158392388Y-78953630D01*
X158361060Y-79105596D01*
X157962600Y-79105596D01*
X157979940Y-79006569D01*
X158037458Y-78829392D01*
X158117686Y-78662599D01*
X158218172Y-78508984D01*
X158336464Y-78371340D01*
X158470109Y-78252458D01*
X158616656Y-78155133D01*
X158773651Y-78082157D01*
X158938642Y-78036324D01*
X159109176Y-78020425D01*
X159215008Y-78028508D01*
G37*
G36*
X164046301Y-76941849D02*
G01*
X161534508Y-76941849D01*
X161165212Y-78041674D01*
X161337404Y-78067320D01*
X161407382Y-77938394D01*
X161489547Y-77789334D01*
X161571050Y-77649892D01*
X161658954Y-77520670D01*
X161698639Y-77468681D01*
X161796182Y-77355876D01*
X161917915Y-77254515D01*
X162048102Y-77185242D01*
X162207121Y-77144716D01*
X162290683Y-77139685D01*
X162349302Y-77139685D01*
X162486505Y-77194383D01*
X162488520Y-77212226D01*
X162467271Y-77319204D01*
X161895743Y-79474159D01*
X161854124Y-79626079D01*
X161799023Y-79734277D01*
X161660527Y-79782543D01*
X161501749Y-79792445D01*
X161446580Y-79792896D01*
X161354256Y-79792896D01*
X161333007Y-79990000D01*
X162786741Y-79990000D01*
X162811653Y-79792896D01*
X162656315Y-79792896D01*
X162506143Y-79789324D01*
X162357349Y-79755830D01*
X162324389Y-79679323D01*
X162349308Y-79528019D01*
X162362491Y-79474159D01*
X162920830Y-77379288D01*
X162964681Y-77237914D01*
X163077423Y-77141913D01*
X163131123Y-77139685D01*
X163189741Y-77139685D01*
X163340634Y-77152895D01*
X163481447Y-77200891D01*
X163546580Y-77246664D01*
X163631983Y-77380098D01*
X163678271Y-77536399D01*
X163699211Y-77703023D01*
X163701919Y-77794012D01*
X163699951Y-77941703D01*
X163693859Y-78092965D01*
X163869713Y-78114214D01*
X164046301Y-76941849D01*
G37*
G36*
X165008761Y-78028706D02*
G01*
X165164174Y-78080356D01*
X165289851Y-78173700D01*
X165378385Y-78302203D01*
X165422365Y-78459330D01*
X165535938Y-78083440D01*
X165900837Y-78083440D01*
X165480983Y-79478555D01*
X165461406Y-79551610D01*
X165434822Y-79702770D01*
X165522749Y-79806085D01*
X165565426Y-79798007D01*
X165685774Y-79709068D01*
X165779670Y-79590833D01*
X165865073Y-79454565D01*
X165938939Y-79317355D01*
X166069364Y-79387697D01*
X166027610Y-79472407D01*
X165951992Y-79601297D01*
X165863468Y-79731346D01*
X165779228Y-79835729D01*
X165661969Y-79940825D01*
X165521969Y-80012975D01*
X165371807Y-80036894D01*
X165268057Y-80017294D01*
X165150315Y-79911577D01*
X165115352Y-79765052D01*
X165136601Y-79632428D01*
X165040625Y-79758974D01*
X164929325Y-79876047D01*
X164798076Y-79969180D01*
X164657255Y-80020909D01*
X164498394Y-80036894D01*
X164429705Y-80033742D01*
X164272141Y-79999304D01*
X164137020Y-79929436D01*
X164027110Y-79827275D01*
X163945176Y-79695955D01*
X163893986Y-79538614D01*
X163882058Y-79417006D01*
X164258792Y-79417006D01*
X164271804Y-79548338D01*
X164327602Y-79687094D01*
X164438333Y-79787786D01*
X164594382Y-79822937D01*
X164633126Y-79821574D01*
X164791785Y-79780856D01*
X164914325Y-79695128D01*
X165010258Y-79579901D01*
X165086043Y-79449979D01*
X165098134Y-79425256D01*
X165164609Y-79270039D01*
X165219589Y-79107713D01*
X165261566Y-78944768D01*
X165289035Y-78787696D01*
X165300732Y-78620530D01*
X165295089Y-78539267D01*
X165243340Y-78389561D01*
X165128774Y-78284162D01*
X164981263Y-78251967D01*
X164911337Y-78257193D01*
X164768978Y-78303743D01*
X164644940Y-78397048D01*
X164583943Y-78465162D01*
X164490632Y-78599384D01*
X164409826Y-78754025D01*
X164343906Y-78922798D01*
X164303488Y-79063764D01*
X164270363Y-79242124D01*
X164258792Y-79417006D01*
X163882058Y-79417006D01*
X163876308Y-79358387D01*
X163877776Y-79296105D01*
X163894009Y-79139491D01*
X163927506Y-78983283D01*
X163977412Y-78829611D01*
X164042870Y-78680604D01*
X164123027Y-78538393D01*
X164217027Y-78405108D01*
X164332206Y-78276825D01*
X164455307Y-78173590D01*
X164585285Y-78096186D01*
X164744228Y-78039572D01*
X164909455Y-78020425D01*
X165008761Y-78028706D01*
G37*
G36*
X167857983Y-78021404D02*
G01*
X168010089Y-78054197D01*
X168150657Y-78128956D01*
X168268283Y-78239511D01*
X168285777Y-78262252D01*
X168359836Y-78397601D01*
X168396564Y-78542969D01*
X168406769Y-78699665D01*
X168405350Y-78763435D01*
X168389614Y-78922455D01*
X168357000Y-79079405D01*
X168308179Y-79232425D01*
X168243821Y-79379651D01*
X168164597Y-79519224D01*
X168071179Y-79649281D01*
X168032588Y-79696138D01*
X167909028Y-79818656D01*
X167774534Y-79914048D01*
X167630061Y-79982257D01*
X167476565Y-80023225D01*
X167315003Y-80036894D01*
X167264866Y-80035935D01*
X167116852Y-80015230D01*
X166975700Y-79938695D01*
X166879503Y-79810606D01*
X166815282Y-79669797D01*
X166609385Y-80353433D01*
X166591985Y-80417408D01*
X166563224Y-80563726D01*
X166563421Y-80571455D01*
X166679915Y-80665116D01*
X166831402Y-80673635D01*
X166881960Y-80673635D01*
X166865108Y-80824577D01*
X165857606Y-80824577D01*
X165873726Y-80673635D01*
X165968404Y-80668532D01*
X166127316Y-80629519D01*
X166206794Y-80494498D01*
X166248150Y-80353433D01*
X166517893Y-79445582D01*
X166924459Y-79445582D01*
X166934859Y-79543986D01*
X167001306Y-79692142D01*
X167119200Y-79791221D01*
X167276901Y-79827334D01*
X167396629Y-79812235D01*
X167540588Y-79743798D01*
X167654171Y-79636755D01*
X167744053Y-79508579D01*
X167814724Y-79375240D01*
X167879713Y-79228529D01*
X167932473Y-79079760D01*
X167972365Y-78931977D01*
X168001793Y-78764868D01*
X168011828Y-78608073D01*
X168006043Y-78529282D01*
X167953654Y-78381890D01*
X167839905Y-78276038D01*
X167696755Y-78243175D01*
X167569993Y-78264618D01*
X167428918Y-78337971D01*
X167309747Y-78444271D01*
X167213886Y-78567041D01*
X167141591Y-78690034D01*
X167075977Y-78828893D01*
X167019326Y-78976405D01*
X166973918Y-79125360D01*
X166937480Y-79295855D01*
X166924459Y-79445582D01*
X166517893Y-79445582D01*
X166785240Y-78545792D01*
X166796298Y-78510241D01*
X166823342Y-78364075D01*
X166735222Y-78251768D01*
X166583740Y-78235115D01*
X166483356Y-78235115D01*
X166500209Y-78083440D01*
X167264445Y-78020425D01*
X167201430Y-78376531D01*
X167273818Y-78295173D01*
X167387236Y-78191988D01*
X167524885Y-78101237D01*
X167665728Y-78043712D01*
X167827180Y-78020425D01*
X167857983Y-78021404D01*
G37*
D11*
X137821428Y-89109580D02*
X137773809Y-89157200D01*
X137773809Y-89157200D02*
X137630952Y-89204819D01*
X137630952Y-89204819D02*
X137535714Y-89204819D01*
X137535714Y-89204819D02*
X137392857Y-89157200D01*
X137392857Y-89157200D02*
X137297619Y-89061961D01*
X137297619Y-89061961D02*
X137250000Y-88966723D01*
X137250000Y-88966723D02*
X137202381Y-88776247D01*
X137202381Y-88776247D02*
X137202381Y-88633390D01*
X137202381Y-88633390D02*
X137250000Y-88442914D01*
X137250000Y-88442914D02*
X137297619Y-88347676D01*
X137297619Y-88347676D02*
X137392857Y-88252438D01*
X137392857Y-88252438D02*
X137535714Y-88204819D01*
X137535714Y-88204819D02*
X137630952Y-88204819D01*
X137630952Y-88204819D02*
X137773809Y-88252438D01*
X137773809Y-88252438D02*
X137821428Y-88300057D01*
X138202381Y-88919104D02*
X138678571Y-88919104D01*
X138107143Y-89204819D02*
X138440476Y-88204819D01*
X138440476Y-88204819D02*
X138773809Y-89204819D01*
X139107143Y-89204819D02*
X139107143Y-88204819D01*
X139107143Y-88204819D02*
X139678571Y-89204819D01*
X139678571Y-89204819D02*
X139678571Y-88204819D01*
X139916667Y-89300057D02*
X140678571Y-89300057D01*
X141392857Y-89204819D02*
X140916667Y-89204819D01*
X140916667Y-89204819D02*
X140916667Y-88204819D01*
X129002438Y-116761904D02*
X128954819Y-116857142D01*
X128954819Y-116857142D02*
X128954819Y-116999999D01*
X128954819Y-116999999D02*
X129002438Y-117142856D01*
X129002438Y-117142856D02*
X129097676Y-117238094D01*
X129097676Y-117238094D02*
X129192914Y-117285713D01*
X129192914Y-117285713D02*
X129383390Y-117333332D01*
X129383390Y-117333332D02*
X129526247Y-117333332D01*
X129526247Y-117333332D02*
X129716723Y-117285713D01*
X129716723Y-117285713D02*
X129811961Y-117238094D01*
X129811961Y-117238094D02*
X129907200Y-117142856D01*
X129907200Y-117142856D02*
X129954819Y-116999999D01*
X129954819Y-116999999D02*
X129954819Y-116904761D01*
X129954819Y-116904761D02*
X129907200Y-116761904D01*
X129907200Y-116761904D02*
X129859580Y-116714285D01*
X129859580Y-116714285D02*
X129526247Y-116714285D01*
X129526247Y-116714285D02*
X129526247Y-116904761D01*
X129954819Y-116285713D02*
X128954819Y-116285713D01*
X128954819Y-116285713D02*
X129954819Y-115714285D01*
X129954819Y-115714285D02*
X128954819Y-115714285D01*
X129954819Y-115238094D02*
X128954819Y-115238094D01*
X128954819Y-115238094D02*
X128954819Y-114999999D01*
X128954819Y-114999999D02*
X129002438Y-114857142D01*
X129002438Y-114857142D02*
X129097676Y-114761904D01*
X129097676Y-114761904D02*
X129192914Y-114714285D01*
X129192914Y-114714285D02*
X129383390Y-114666666D01*
X129383390Y-114666666D02*
X129526247Y-114666666D01*
X129526247Y-114666666D02*
X129716723Y-114714285D01*
X129716723Y-114714285D02*
X129811961Y-114761904D01*
X129811961Y-114761904D02*
X129907200Y-114857142D01*
X129907200Y-114857142D02*
X129954819Y-114999999D01*
X129954819Y-114999999D02*
X129954819Y-115238094D01*
X136988095Y-92002438D02*
X136892857Y-91954819D01*
X136892857Y-91954819D02*
X136750000Y-91954819D01*
X136750000Y-91954819D02*
X136607143Y-92002438D01*
X136607143Y-92002438D02*
X136511905Y-92097676D01*
X136511905Y-92097676D02*
X136464286Y-92192914D01*
X136464286Y-92192914D02*
X136416667Y-92383390D01*
X136416667Y-92383390D02*
X136416667Y-92526247D01*
X136416667Y-92526247D02*
X136464286Y-92716723D01*
X136464286Y-92716723D02*
X136511905Y-92811961D01*
X136511905Y-92811961D02*
X136607143Y-92907200D01*
X136607143Y-92907200D02*
X136750000Y-92954819D01*
X136750000Y-92954819D02*
X136845238Y-92954819D01*
X136845238Y-92954819D02*
X136988095Y-92907200D01*
X136988095Y-92907200D02*
X137035714Y-92859580D01*
X137035714Y-92859580D02*
X137035714Y-92526247D01*
X137035714Y-92526247D02*
X136845238Y-92526247D01*
X137464286Y-92954819D02*
X137464286Y-91954819D01*
X137464286Y-91954819D02*
X138035714Y-92954819D01*
X138035714Y-92954819D02*
X138035714Y-91954819D01*
X138511905Y-92954819D02*
X138511905Y-91954819D01*
X138511905Y-91954819D02*
X138750000Y-91954819D01*
X138750000Y-91954819D02*
X138892857Y-92002438D01*
X138892857Y-92002438D02*
X138988095Y-92097676D01*
X138988095Y-92097676D02*
X139035714Y-92192914D01*
X139035714Y-92192914D02*
X139083333Y-92383390D01*
X139083333Y-92383390D02*
X139083333Y-92526247D01*
X139083333Y-92526247D02*
X139035714Y-92716723D01*
X139035714Y-92716723D02*
X138988095Y-92811961D01*
X138988095Y-92811961D02*
X138892857Y-92907200D01*
X138892857Y-92907200D02*
X138750000Y-92954819D01*
X138750000Y-92954819D02*
X138511905Y-92954819D01*
X137202380Y-84859580D02*
X137154761Y-84907200D01*
X137154761Y-84907200D02*
X137011904Y-84954819D01*
X137011904Y-84954819D02*
X136916666Y-84954819D01*
X136916666Y-84954819D02*
X136773809Y-84907200D01*
X136773809Y-84907200D02*
X136678571Y-84811961D01*
X136678571Y-84811961D02*
X136630952Y-84716723D01*
X136630952Y-84716723D02*
X136583333Y-84526247D01*
X136583333Y-84526247D02*
X136583333Y-84383390D01*
X136583333Y-84383390D02*
X136630952Y-84192914D01*
X136630952Y-84192914D02*
X136678571Y-84097676D01*
X136678571Y-84097676D02*
X136773809Y-84002438D01*
X136773809Y-84002438D02*
X136916666Y-83954819D01*
X136916666Y-83954819D02*
X137011904Y-83954819D01*
X137011904Y-83954819D02*
X137154761Y-84002438D01*
X137154761Y-84002438D02*
X137202380Y-84050057D01*
X137583333Y-84669104D02*
X138059523Y-84669104D01*
X137488095Y-84954819D02*
X137821428Y-83954819D01*
X137821428Y-83954819D02*
X138154761Y-84954819D01*
X138488095Y-84954819D02*
X138488095Y-83954819D01*
X138488095Y-83954819D02*
X139059523Y-84954819D01*
X139059523Y-84954819D02*
X139059523Y-83954819D01*
X139297619Y-85050057D02*
X140059523Y-85050057D01*
X140297619Y-84954819D02*
X140297619Y-83954819D01*
X140297619Y-84431009D02*
X140869047Y-84431009D01*
X140869047Y-84954819D02*
X140869047Y-83954819D01*
X158238095Y-88204819D02*
X158809523Y-88204819D01*
X158523809Y-89204819D02*
X158523809Y-88204819D01*
X159142857Y-89204819D02*
X159142857Y-88204819D01*
X159142857Y-88681009D02*
X159714285Y-88681009D01*
X159714285Y-89204819D02*
X159714285Y-88204819D01*
X160761904Y-89204819D02*
X160428571Y-88728628D01*
X160190476Y-89204819D02*
X160190476Y-88204819D01*
X160190476Y-88204819D02*
X160571428Y-88204819D01*
X160571428Y-88204819D02*
X160666666Y-88252438D01*
X160666666Y-88252438D02*
X160714285Y-88300057D01*
X160714285Y-88300057D02*
X160761904Y-88395295D01*
X160761904Y-88395295D02*
X160761904Y-88538152D01*
X160761904Y-88538152D02*
X160714285Y-88633390D01*
X160714285Y-88633390D02*
X160666666Y-88681009D01*
X160666666Y-88681009D02*
X160571428Y-88728628D01*
X160571428Y-88728628D02*
X160190476Y-88728628D01*
X161380952Y-88204819D02*
X161571428Y-88204819D01*
X161571428Y-88204819D02*
X161666666Y-88252438D01*
X161666666Y-88252438D02*
X161761904Y-88347676D01*
X161761904Y-88347676D02*
X161809523Y-88538152D01*
X161809523Y-88538152D02*
X161809523Y-88871485D01*
X161809523Y-88871485D02*
X161761904Y-89061961D01*
X161761904Y-89061961D02*
X161666666Y-89157200D01*
X161666666Y-89157200D02*
X161571428Y-89204819D01*
X161571428Y-89204819D02*
X161380952Y-89204819D01*
X161380952Y-89204819D02*
X161285714Y-89157200D01*
X161285714Y-89157200D02*
X161190476Y-89061961D01*
X161190476Y-89061961D02*
X161142857Y-88871485D01*
X161142857Y-88871485D02*
X161142857Y-88538152D01*
X161142857Y-88538152D02*
X161190476Y-88347676D01*
X161190476Y-88347676D02*
X161285714Y-88252438D01*
X161285714Y-88252438D02*
X161380952Y-88204819D01*
X162095238Y-88204819D02*
X162666666Y-88204819D01*
X162380952Y-89204819D02*
X162380952Y-88204819D01*
X162857143Y-88204819D02*
X163428571Y-88204819D01*
X163142857Y-89204819D02*
X163142857Y-88204819D01*
X164238095Y-89204819D02*
X163761905Y-89204819D01*
X163761905Y-89204819D02*
X163761905Y-88204819D01*
X164571429Y-88681009D02*
X164904762Y-88681009D01*
X165047619Y-89204819D02*
X164571429Y-89204819D01*
X164571429Y-89204819D02*
X164571429Y-88204819D01*
X164571429Y-88204819D02*
X165047619Y-88204819D01*
X165238096Y-89300057D02*
X166000000Y-89300057D01*
X166190477Y-88919104D02*
X166666667Y-88919104D01*
X166095239Y-89204819D02*
X166428572Y-88204819D01*
X166428572Y-88204819D02*
X166761905Y-89204819D01*
X133609580Y-116678571D02*
X133657200Y-116726190D01*
X133657200Y-116726190D02*
X133704819Y-116869047D01*
X133704819Y-116869047D02*
X133704819Y-116964285D01*
X133704819Y-116964285D02*
X133657200Y-117107142D01*
X133657200Y-117107142D02*
X133561961Y-117202380D01*
X133561961Y-117202380D02*
X133466723Y-117249999D01*
X133466723Y-117249999D02*
X133276247Y-117297618D01*
X133276247Y-117297618D02*
X133133390Y-117297618D01*
X133133390Y-117297618D02*
X132942914Y-117249999D01*
X132942914Y-117249999D02*
X132847676Y-117202380D01*
X132847676Y-117202380D02*
X132752438Y-117107142D01*
X132752438Y-117107142D02*
X132704819Y-116964285D01*
X132704819Y-116964285D02*
X132704819Y-116869047D01*
X132704819Y-116869047D02*
X132752438Y-116726190D01*
X132752438Y-116726190D02*
X132800057Y-116678571D01*
X133419104Y-116297618D02*
X133419104Y-115821428D01*
X133704819Y-116392856D02*
X132704819Y-116059523D01*
X132704819Y-116059523D02*
X133704819Y-115726190D01*
X133704819Y-115392856D02*
X132704819Y-115392856D01*
X132704819Y-115392856D02*
X133704819Y-114821428D01*
X133704819Y-114821428D02*
X132704819Y-114821428D01*
X133800057Y-114583333D02*
X133800057Y-113821428D01*
X133704819Y-113107142D02*
X133704819Y-113583332D01*
X133704819Y-113583332D02*
X132704819Y-113583332D01*
X158166666Y-91954819D02*
X158738094Y-91954819D01*
X158452380Y-92954819D02*
X158452380Y-91954819D01*
X159071428Y-92954819D02*
X159071428Y-91954819D01*
X159071428Y-92431009D02*
X159642856Y-92431009D01*
X159642856Y-92954819D02*
X159642856Y-91954819D01*
X160690475Y-92954819D02*
X160357142Y-92478628D01*
X160119047Y-92954819D02*
X160119047Y-91954819D01*
X160119047Y-91954819D02*
X160499999Y-91954819D01*
X160499999Y-91954819D02*
X160595237Y-92002438D01*
X160595237Y-92002438D02*
X160642856Y-92050057D01*
X160642856Y-92050057D02*
X160690475Y-92145295D01*
X160690475Y-92145295D02*
X160690475Y-92288152D01*
X160690475Y-92288152D02*
X160642856Y-92383390D01*
X160642856Y-92383390D02*
X160595237Y-92431009D01*
X160595237Y-92431009D02*
X160499999Y-92478628D01*
X160499999Y-92478628D02*
X160119047Y-92478628D01*
X161309523Y-91954819D02*
X161499999Y-91954819D01*
X161499999Y-91954819D02*
X161595237Y-92002438D01*
X161595237Y-92002438D02*
X161690475Y-92097676D01*
X161690475Y-92097676D02*
X161738094Y-92288152D01*
X161738094Y-92288152D02*
X161738094Y-92621485D01*
X161738094Y-92621485D02*
X161690475Y-92811961D01*
X161690475Y-92811961D02*
X161595237Y-92907200D01*
X161595237Y-92907200D02*
X161499999Y-92954819D01*
X161499999Y-92954819D02*
X161309523Y-92954819D01*
X161309523Y-92954819D02*
X161214285Y-92907200D01*
X161214285Y-92907200D02*
X161119047Y-92811961D01*
X161119047Y-92811961D02*
X161071428Y-92621485D01*
X161071428Y-92621485D02*
X161071428Y-92288152D01*
X161071428Y-92288152D02*
X161119047Y-92097676D01*
X161119047Y-92097676D02*
X161214285Y-92002438D01*
X161214285Y-92002438D02*
X161309523Y-91954819D01*
X162023809Y-91954819D02*
X162595237Y-91954819D01*
X162309523Y-92954819D02*
X162309523Y-91954819D01*
X162785714Y-91954819D02*
X163357142Y-91954819D01*
X163071428Y-92954819D02*
X163071428Y-91954819D01*
X164166666Y-92954819D02*
X163690476Y-92954819D01*
X163690476Y-92954819D02*
X163690476Y-91954819D01*
X164500000Y-92431009D02*
X164833333Y-92431009D01*
X164976190Y-92954819D02*
X164500000Y-92954819D01*
X164500000Y-92954819D02*
X164500000Y-91954819D01*
X164500000Y-91954819D02*
X164976190Y-91954819D01*
X165166667Y-93050057D02*
X165928571Y-93050057D01*
X166500000Y-92431009D02*
X166642857Y-92478628D01*
X166642857Y-92478628D02*
X166690476Y-92526247D01*
X166690476Y-92526247D02*
X166738095Y-92621485D01*
X166738095Y-92621485D02*
X166738095Y-92764342D01*
X166738095Y-92764342D02*
X166690476Y-92859580D01*
X166690476Y-92859580D02*
X166642857Y-92907200D01*
X166642857Y-92907200D02*
X166547619Y-92954819D01*
X166547619Y-92954819D02*
X166166667Y-92954819D01*
X166166667Y-92954819D02*
X166166667Y-91954819D01*
X166166667Y-91954819D02*
X166500000Y-91954819D01*
X166500000Y-91954819D02*
X166595238Y-92002438D01*
X166595238Y-92002438D02*
X166642857Y-92050057D01*
X166642857Y-92050057D02*
X166690476Y-92145295D01*
X166690476Y-92145295D02*
X166690476Y-92240533D01*
X166690476Y-92240533D02*
X166642857Y-92335771D01*
X166642857Y-92335771D02*
X166595238Y-92383390D01*
X166595238Y-92383390D02*
X166500000Y-92431009D01*
X166500000Y-92431009D02*
X166166667Y-92431009D01*
X125940476Y-88204819D02*
X126178571Y-89204819D01*
X126178571Y-89204819D02*
X126369047Y-88490533D01*
X126369047Y-88490533D02*
X126559523Y-89204819D01*
X126559523Y-89204819D02*
X126797619Y-88204819D01*
X127130952Y-88919104D02*
X127607142Y-88919104D01*
X127035714Y-89204819D02*
X127369047Y-88204819D01*
X127369047Y-88204819D02*
X127702380Y-89204819D01*
X128035714Y-89204819D02*
X128035714Y-88204819D01*
X128607142Y-89204819D02*
X128178571Y-88633390D01*
X128607142Y-88204819D02*
X128035714Y-88776247D01*
X129035714Y-88681009D02*
X129369047Y-88681009D01*
X129511904Y-89204819D02*
X129035714Y-89204819D01*
X129035714Y-89204819D02*
X129035714Y-88204819D01*
X129035714Y-88204819D02*
X129511904Y-88204819D01*
X126761905Y-92573866D02*
X127523810Y-92573866D01*
X127142857Y-92954819D02*
X127142857Y-92192914D01*
X128476190Y-91954819D02*
X128000000Y-91954819D01*
X128000000Y-91954819D02*
X127952381Y-92431009D01*
X127952381Y-92431009D02*
X128000000Y-92383390D01*
X128000000Y-92383390D02*
X128095238Y-92335771D01*
X128095238Y-92335771D02*
X128333333Y-92335771D01*
X128333333Y-92335771D02*
X128428571Y-92383390D01*
X128428571Y-92383390D02*
X128476190Y-92431009D01*
X128476190Y-92431009D02*
X128523809Y-92526247D01*
X128523809Y-92526247D02*
X128523809Y-92764342D01*
X128523809Y-92764342D02*
X128476190Y-92859580D01*
X128476190Y-92859580D02*
X128428571Y-92907200D01*
X128428571Y-92907200D02*
X128333333Y-92954819D01*
X128333333Y-92954819D02*
X128095238Y-92954819D01*
X128095238Y-92954819D02*
X128000000Y-92907200D01*
X128000000Y-92907200D02*
X127952381Y-92859580D01*
X128857143Y-92288152D02*
X129095238Y-92954819D01*
X129095238Y-92954819D02*
X129333333Y-92288152D01*
X168454819Y-116690475D02*
X168454819Y-116119047D01*
X169454819Y-116404761D02*
X168454819Y-116404761D01*
X169454819Y-115785713D02*
X168454819Y-115785713D01*
X168931009Y-115785713D02*
X168931009Y-115214285D01*
X169454819Y-115214285D02*
X168454819Y-115214285D01*
X169454819Y-114166666D02*
X168978628Y-114499999D01*
X169454819Y-114738094D02*
X168454819Y-114738094D01*
X168454819Y-114738094D02*
X168454819Y-114357142D01*
X168454819Y-114357142D02*
X168502438Y-114261904D01*
X168502438Y-114261904D02*
X168550057Y-114214285D01*
X168550057Y-114214285D02*
X168645295Y-114166666D01*
X168645295Y-114166666D02*
X168788152Y-114166666D01*
X168788152Y-114166666D02*
X168883390Y-114214285D01*
X168883390Y-114214285D02*
X168931009Y-114261904D01*
X168931009Y-114261904D02*
X168978628Y-114357142D01*
X168978628Y-114357142D02*
X168978628Y-114738094D01*
X169550057Y-113976190D02*
X169550057Y-113214285D01*
X168931009Y-112642856D02*
X168978628Y-112499999D01*
X168978628Y-112499999D02*
X169026247Y-112452380D01*
X169026247Y-112452380D02*
X169121485Y-112404761D01*
X169121485Y-112404761D02*
X169264342Y-112404761D01*
X169264342Y-112404761D02*
X169359580Y-112452380D01*
X169359580Y-112452380D02*
X169407200Y-112499999D01*
X169407200Y-112499999D02*
X169454819Y-112595237D01*
X169454819Y-112595237D02*
X169454819Y-112976189D01*
X169454819Y-112976189D02*
X168454819Y-112976189D01*
X168454819Y-112976189D02*
X168454819Y-112642856D01*
X168454819Y-112642856D02*
X168502438Y-112547618D01*
X168502438Y-112547618D02*
X168550057Y-112499999D01*
X168550057Y-112499999D02*
X168645295Y-112452380D01*
X168645295Y-112452380D02*
X168740533Y-112452380D01*
X168740533Y-112452380D02*
X168835771Y-112499999D01*
X168835771Y-112499999D02*
X168883390Y-112547618D01*
X168883390Y-112547618D02*
X168931009Y-112642856D01*
X168931009Y-112642856D02*
X168931009Y-112976189D01*
X137109580Y-116797619D02*
X137157200Y-116845238D01*
X137157200Y-116845238D02*
X137204819Y-116988095D01*
X137204819Y-116988095D02*
X137204819Y-117083333D01*
X137204819Y-117083333D02*
X137157200Y-117226190D01*
X137157200Y-117226190D02*
X137061961Y-117321428D01*
X137061961Y-117321428D02*
X136966723Y-117369047D01*
X136966723Y-117369047D02*
X136776247Y-117416666D01*
X136776247Y-117416666D02*
X136633390Y-117416666D01*
X136633390Y-117416666D02*
X136442914Y-117369047D01*
X136442914Y-117369047D02*
X136347676Y-117321428D01*
X136347676Y-117321428D02*
X136252438Y-117226190D01*
X136252438Y-117226190D02*
X136204819Y-117083333D01*
X136204819Y-117083333D02*
X136204819Y-116988095D01*
X136204819Y-116988095D02*
X136252438Y-116845238D01*
X136252438Y-116845238D02*
X136300057Y-116797619D01*
X136919104Y-116416666D02*
X136919104Y-115940476D01*
X137204819Y-116511904D02*
X136204819Y-116178571D01*
X136204819Y-116178571D02*
X137204819Y-115845238D01*
X137204819Y-115511904D02*
X136204819Y-115511904D01*
X136204819Y-115511904D02*
X137204819Y-114940476D01*
X137204819Y-114940476D02*
X136204819Y-114940476D01*
X137300057Y-114702381D02*
X137300057Y-113940476D01*
X137204819Y-113702380D02*
X136204819Y-113702380D01*
X136681009Y-113702380D02*
X136681009Y-113130952D01*
X137204819Y-113130952D02*
X136204819Y-113130952D01*
X163204819Y-116619047D02*
X163204819Y-116047619D01*
X164204819Y-116333333D02*
X163204819Y-116333333D01*
X164204819Y-115714285D02*
X163204819Y-115714285D01*
X163681009Y-115714285D02*
X163681009Y-115142857D01*
X164204819Y-115142857D02*
X163204819Y-115142857D01*
X164204819Y-114095238D02*
X163728628Y-114428571D01*
X164204819Y-114666666D02*
X163204819Y-114666666D01*
X163204819Y-114666666D02*
X163204819Y-114285714D01*
X163204819Y-114285714D02*
X163252438Y-114190476D01*
X163252438Y-114190476D02*
X163300057Y-114142857D01*
X163300057Y-114142857D02*
X163395295Y-114095238D01*
X163395295Y-114095238D02*
X163538152Y-114095238D01*
X163538152Y-114095238D02*
X163633390Y-114142857D01*
X163633390Y-114142857D02*
X163681009Y-114190476D01*
X163681009Y-114190476D02*
X163728628Y-114285714D01*
X163728628Y-114285714D02*
X163728628Y-114666666D01*
X164300057Y-113904762D02*
X164300057Y-113142857D01*
X163919104Y-112952380D02*
X163919104Y-112476190D01*
X164204819Y-113047618D02*
X163204819Y-112714285D01*
X163204819Y-112714285D02*
X164204819Y-112380952D01*
D12*
%TO.C,CAN_L*%
X136700000Y-88750000D02*
G75*
G02*
X134800000Y-88750000I-950000J0D01*
G01*
X134800000Y-88750000D02*
G75*
G02*
X136700000Y-88750000I950000J0D01*
G01*
%TO.C,GND*%
X130700000Y-119500000D02*
G75*
G02*
X128300000Y-119500000I-1200000J0D01*
G01*
X128300000Y-119500000D02*
G75*
G02*
X130700000Y-119500000I1200000J0D01*
G01*
X135950000Y-92500000D02*
G75*
G02*
X134050000Y-92500000I-950000J0D01*
G01*
X134050000Y-92500000D02*
G75*
G02*
X135950000Y-92500000I950000J0D01*
G01*
%TO.C,CAN_H*%
X135950000Y-84500000D02*
G75*
G02*
X134050000Y-84500000I-950000J0D01*
G01*
X134050000Y-84500000D02*
G75*
G02*
X135950000Y-84500000I950000J0D01*
G01*
%TO.C,THROTTLE_A*%
X169450000Y-88750000D02*
G75*
G02*
X167550000Y-88750000I-950000J0D01*
G01*
X167550000Y-88750000D02*
G75*
G02*
X169450000Y-88750000I950000J0D01*
G01*
%TO.C,CAN_L*%
X134450000Y-119500000D02*
G75*
G02*
X132050000Y-119500000I-1200000J0D01*
G01*
X132050000Y-119500000D02*
G75*
G02*
X134450000Y-119500000I1200000J0D01*
G01*
%TO.C,THROTTLE_B*%
X169450000Y-92750000D02*
G75*
G02*
X167550000Y-92750000I-950000J0D01*
G01*
X167550000Y-92750000D02*
G75*
G02*
X169450000Y-92750000I950000J0D01*
G01*
%TO.C,WAKE*%
X131950000Y-88750000D02*
G75*
G02*
X130050000Y-88750000I-950000J0D01*
G01*
X130050000Y-88750000D02*
G75*
G02*
X131950000Y-88750000I950000J0D01*
G01*
%TO.C,+5v*%
X131950000Y-92500000D02*
G75*
G02*
X130050000Y-92500000I-950000J0D01*
G01*
X130050000Y-92500000D02*
G75*
G02*
X131950000Y-92500000I950000J0D01*
G01*
%TO.C,THR_B*%
X170200000Y-118750000D02*
G75*
G02*
X167800000Y-118750000I-1200000J0D01*
G01*
X167800000Y-118750000D02*
G75*
G02*
X170200000Y-118750000I1200000J0D01*
G01*
%TO.C,CAN_H*%
X137950000Y-119500000D02*
G75*
G02*
X135550000Y-119500000I-1200000J0D01*
G01*
X135550000Y-119500000D02*
G75*
G02*
X137950000Y-119500000I1200000J0D01*
G01*
%TO.C,THR_A*%
X164950000Y-118750000D02*
G75*
G02*
X162550000Y-118750000I-1200000J0D01*
G01*
X162550000Y-118750000D02*
G75*
G02*
X164950000Y-118750000I1200000J0D01*
G01*
%TD*%
M02*
