%TF.GenerationSoftware,KiCad,Pcbnew,8.0.9-8.0.9-0~ubuntu20.04.1*%
%TF.CreationDate,2026-03-28T13:37:35+11:00*%
%TF.ProjectId,bionx,62696f6e-782e-46b6-9963-61645f706362,rev?*%
%TF.SameCoordinates,Original*%
%TF.FileFunction,Copper,L1,Top*%
%TF.FilePolarity,Positive*%
%FSLAX46Y46*%
G04 Gerber Fmt 4.6, Leading zero omitted, Abs format (unit mm)*
G04 Created by KiCad (PCBNEW 8.0.9-8.0.9-0~ubuntu20.04.1) date 2026-03-28 13:37:35*
%MOMM*%
%LPD*%
G01*
G04 APERTURE LIST*
%TA.AperFunction,SMDPad,CuDef*%
%ADD10C,2.000000*%
%TD*%
%TA.AperFunction,ViaPad*%
%ADD11C,0.600000*%
%TD*%
%TA.AperFunction,Conductor*%
%ADD12C,1.000000*%
%TD*%
G04 APERTURE END LIST*
D10*
%TO.P,CAN_L,1,1*%
%TO.N,/CAN_L*%
X135750000Y-88750000D03*
%TD*%
%TO.P,GND,1,1*%
%TO.N,/GND*%
X129500000Y-119500000D03*
%TD*%
%TO.P,GND,1,1*%
%TO.N,/GND*%
X135000000Y-92500000D03*
%TD*%
%TO.P,CAN_H,1,1*%
%TO.N,/CAN_H*%
X135000000Y-84500000D03*
%TD*%
%TO.P,THROTTLE_A,1,1*%
%TO.N,/THR_1*%
X168500000Y-88750000D03*
%TD*%
%TO.P,CAN_L,1,1*%
%TO.N,/CAN_L*%
X133250000Y-119500000D03*
%TD*%
%TO.P,THROTTLE_B,1,1*%
%TO.N,/THR_2*%
X168500000Y-92750000D03*
%TD*%
%TO.P,WAKE,1,1*%
%TO.N,/WAKE*%
X131000000Y-88750000D03*
%TD*%
%TO.P,+5v,1,1*%
%TO.N,/5v*%
X131000000Y-92500000D03*
%TD*%
%TO.P,THR_B,1,1*%
%TO.N,/THR_2*%
X169000000Y-118750000D03*
%TD*%
%TO.P,CAN_H,1,1*%
%TO.N,/CAN_H*%
X136750000Y-119500000D03*
%TD*%
%TO.P,THR_A,1,1*%
%TO.N,/THR_1*%
X163750000Y-118750000D03*
%TD*%
D11*
%TO.N,/5v*%
X131000000Y-92500000D03*
%TO.N,/GND*%
X135000000Y-92500000D03*
%TO.N,/CAN_H*%
X135000000Y-84500000D03*
%TO.N,/CAN_L*%
X135750000Y-88750000D03*
%TO.N,/WAKE*%
X131000000Y-88750000D03*
%TO.N,/THR_1*%
X168500000Y-88750000D03*
%TO.N,/THR_2*%
X168500000Y-92750000D03*
%TD*%
D12*
%TO.N,/GND*%
X135250000Y-92500000D02*
X135250000Y-95500000D01*
X129500000Y-101250000D02*
X129500000Y-119500000D01*
X135250000Y-95500000D02*
X129500000Y-101250000D01*
%TO.N,/CAN_H*%
X139250000Y-84500000D02*
X140750000Y-86000000D01*
X140750000Y-86000000D02*
X140750000Y-100500000D01*
X140750000Y-100500000D02*
X136750000Y-104500000D01*
X135500000Y-84500000D02*
X139250000Y-84500000D01*
X136750000Y-104500000D02*
X136750000Y-119500000D01*
%TO.N,/CAN_L*%
X136000000Y-88500000D02*
X137750000Y-90250000D01*
X137750000Y-90250000D02*
X137750000Y-98000000D01*
X133250000Y-102500000D02*
X133250000Y-119500000D01*
X137750000Y-98000000D02*
X133250000Y-102500000D01*
%TO.N,/THR_1*%
X163750000Y-118750000D02*
X163750000Y-89750000D01*
X163750000Y-89750000D02*
X164750000Y-88750000D01*
X164750000Y-88750000D02*
X168750000Y-88750000D01*
%TO.N,/THR_2*%
X169000000Y-118750000D02*
X169000000Y-92750000D01*
X169000000Y-92750000D02*
X168750000Y-92500000D01*
%TD*%
M02*
