%TF.GenerationSoftware,KiCad,Pcbnew,8.0.9-8.0.9-0~ubuntu20.04.1*%
%TF.CreationDate,2026-03-28T13:37:35+11:00*%
%TF.ProjectId,bionx,62696f6e-782e-46b6-9963-61645f706362,rev?*%
%TF.SameCoordinates,Original*%
%TF.FileFunction,Legend,Bot*%
%TF.FilePolarity,Positive*%
%FSLAX46Y46*%
G04 Gerber Fmt 4.6, Leading zero omitted, Abs format (unit mm)*
G04 Created by KiCad (PCBNEW 8.0.9-8.0.9-0~ubuntu20.04.1) date 2026-03-28 13:37:35*
%MOMM*%
%LPD*%
G01*
G04 APERTURE LIST*
%ADD10C,0.150000*%
%ADD11C,0.120000*%
G04 APERTURE END LIST*
D10*
X129954819Y-110190476D02*
X130954819Y-110428571D01*
X130954819Y-110428571D02*
X130240533Y-110619047D01*
X130240533Y-110619047D02*
X130954819Y-110809523D01*
X130954819Y-110809523D02*
X129954819Y-111047619D01*
X130669104Y-111380952D02*
X130669104Y-111857142D01*
X130954819Y-111285714D02*
X129954819Y-111619047D01*
X129954819Y-111619047D02*
X130954819Y-111952380D01*
X130954819Y-112285714D02*
X129954819Y-112285714D01*
X130954819Y-112857142D02*
X130383390Y-112428571D01*
X129954819Y-112857142D02*
X130526247Y-112285714D01*
X130431009Y-113285714D02*
X130431009Y-113619047D01*
X130954819Y-113761904D02*
X130954819Y-113285714D01*
X130954819Y-113285714D02*
X129954819Y-113285714D01*
X129954819Y-113285714D02*
X129954819Y-113761904D01*
X135454819Y-112357142D02*
X135454819Y-111880952D01*
X135454819Y-111880952D02*
X135931009Y-111833333D01*
X135931009Y-111833333D02*
X135883390Y-111880952D01*
X135883390Y-111880952D02*
X135835771Y-111976190D01*
X135835771Y-111976190D02*
X135835771Y-112214285D01*
X135835771Y-112214285D02*
X135883390Y-112309523D01*
X135883390Y-112309523D02*
X135931009Y-112357142D01*
X135931009Y-112357142D02*
X136026247Y-112404761D01*
X136026247Y-112404761D02*
X136264342Y-112404761D01*
X136264342Y-112404761D02*
X136359580Y-112357142D01*
X136359580Y-112357142D02*
X136407200Y-112309523D01*
X136407200Y-112309523D02*
X136454819Y-112214285D01*
X136454819Y-112214285D02*
X136454819Y-111976190D01*
X136454819Y-111976190D02*
X136407200Y-111880952D01*
X136407200Y-111880952D02*
X136359580Y-111833333D01*
X135788152Y-112738095D02*
X136454819Y-112976190D01*
X136454819Y-112976190D02*
X135788152Y-113214285D01*
D11*
%TO.C,TP17*%
X135950000Y-84500000D02*
G75*
G02*
X134050000Y-84500000I-950000J0D01*
G01*
X134050000Y-84500000D02*
G75*
G02*
X135950000Y-84500000I950000J0D01*
G01*
%TO.C,TP11*%
X169450000Y-88750000D02*
G75*
G02*
X167550000Y-88750000I-950000J0D01*
G01*
X167550000Y-88750000D02*
G75*
G02*
X169450000Y-88750000I950000J0D01*
G01*
%TO.C,TP19*%
X131950000Y-88750000D02*
G75*
G02*
X130050000Y-88750000I-950000J0D01*
G01*
X130050000Y-88750000D02*
G75*
G02*
X131950000Y-88750000I950000J0D01*
G01*
%TO.C,TP1*%
X131950000Y-92500000D02*
G75*
G02*
X130050000Y-92500000I-950000J0D01*
G01*
X130050000Y-92500000D02*
G75*
G02*
X131950000Y-92500000I950000J0D01*
G01*
%TO.C,TP18*%
X136700000Y-88750000D02*
G75*
G02*
X134800000Y-88750000I-950000J0D01*
G01*
X134800000Y-88750000D02*
G75*
G02*
X136700000Y-88750000I950000J0D01*
G01*
%TO.C,TP13*%
X169450000Y-92750000D02*
G75*
G02*
X167550000Y-92750000I-950000J0D01*
G01*
X167550000Y-92750000D02*
G75*
G02*
X169450000Y-92750000I950000J0D01*
G01*
%TO.C,WAKE*%
X131700000Y-115750000D02*
G75*
G02*
X129300000Y-115750000I-1200000J0D01*
G01*
X129300000Y-115750000D02*
G75*
G02*
X131700000Y-115750000I1200000J0D01*
G01*
%TO.C,5v*%
X137200000Y-115750000D02*
G75*
G02*
X134800000Y-115750000I-1200000J0D01*
G01*
X134800000Y-115750000D02*
G75*
G02*
X137200000Y-115750000I1200000J0D01*
G01*
%TO.C,TP16*%
X135950000Y-92500000D02*
G75*
G02*
X134050000Y-92500000I-950000J0D01*
G01*
X134050000Y-92500000D02*
G75*
G02*
X135950000Y-92500000I950000J0D01*
G01*
%TD*%
M02*
